<?xml version="1.0" encoding="utf-8"?>
<!-- Generator: Adobe Illustrator 21.1.0, SVG Export Plug-In . SVG Version: 6.00 Build 0)  -->
<svg version="1.1" id="Layer_1" xmlns="http://www.w3.org/2000/svg" xmlns:xlink="http://www.w3.org/1999/xlink" x="0px" y="0px" width="316" height="316" 
	 viewBox="0 0 144 144" style="enable-background:new 0 0 144 144;" xml:space="preserve">
<style type="text/css">
	.st0{fill:#312418;}
	.st1{fill-rule:evenodd;clip-rule:evenodd;fill:#312418;}
	.st2{fill:#79AFBC;}
</style>
<polygon class="st0" points="80.5,133.3 84.9,133.3 84.9,131.3 80.5,131.3 80.5,129.5 84.9,129.5 84.9,127.3 78.3,127.3 78.3,137.6 
	80.5,137.6 "/>
<polygon class="st0" points="65.3,133.3 69.7,133.3 69.7,131.3 65.3,131.3 65.3,129.5 69.7,129.5 69.7,127.3 63.1,127.3 63.1,137.6 
	65.3,137.6 "/>
<path class="st0" d="M50.7,127.1c-3,0-5.4,2.4-5.4,5.4c0,3,2.4,5.4,5.4,5.4c3,0,5.4-2.4,5.4-5.4C56.1,129.5,53.7,127.1,50.7,127.1z
	 M50.7,135.5c-1.7,0-3.1-1.4-3.1-3.1c0-1.7,1.4-3.1,3.1-3.1c1.7,0,3.1,1.4,3.1,3.1C53.8,134.1,52.4,135.5,50.7,135.5z"/>
<path class="st0" d="M37.2,134c-0.5,0.9-1.5,1.5-2.7,1.5c-1.7,0-3.1-1.4-3.1-3.1c0-1.7,1.4-3.1,3.1-3.1c1.1,0,2.1,0.6,2.7,1.5
	l1.7-1.5c-1-1.4-2.6-2.3-4.4-2.3c-3,0-5.4,2.4-5.4,5.4c0,3,2.4,5.4,5.4,5.4c1.8,0,3.4-0.9,4.4-2.3L37.2,134z"/>
<polygon class="st0" points="100.6,135.3 95.9,135.3 95.9,133.3 100.6,133.3 100.6,131.3 95.9,131.3 95.9,129.5 100.6,129.5 
	100.6,127.3 93.6,127.3 93.6,137.6 100.6,137.6 "/>
<polygon class="st0" points="116.5,135.3 111.8,135.3 111.8,133.3 116.5,133.3 116.5,131.3 111.8,131.3 111.8,129.5 116.5,129.5 
	116.5,127.3 109.5,127.3 109.5,137.6 116.5,137.6 "/>
<path class="st0" d="M121.9,135.4c0-1.4,1.1-2.5,2.5-2.5c1.4,0,2.5,1,2.5,2.5c0,1.4-1.1,2.4-2.5,2.4
	C123,137.8,121.9,136.8,121.9,135.4z M126.3,135.4c0-1.2-0.8-1.9-1.9-1.9c-1.1,0-1.9,0.7-1.9,1.9c0,1.2,0.8,1.9,1.9,1.9
	C125.5,137.3,126.3,136.5,126.3,135.4z M125.5,136.6h-0.8l-0.3-0.6h-0.3v0.6h-0.7v-2.4h1c0.7,0,1,0.4,1,0.9c0,0.3-0.1,0.6-0.4,0.8
	L125.5,136.6z M124.5,135.4c0.1,0,0.3,0,0.3-0.3c0-0.2-0.2-0.3-0.3-0.3h-0.3v0.6H124.5z"/>
<path class="st1" d="M69.9,109.4c2.5-0.2,3.1-1.2,2.8-2.9c-0.3-1.8-2.5-2.3-3.7-2c-1.2,0.2-2.2,0.8-2.2,2
	C66.8,107.6,67.4,109.6,69.9,109.4z"/>
<path class="st0" d="M89,109c-0.4,0-0.6-0.3-0.5-0.6c0,0,2.6-5.7,2.8-6.3c0.3-0.9-0.2-1.7-1.9-1.1c-4,1.4-10.7,16.7-14.6,16.5
	c-2.9-0.2-2.2-6.6-5.6-6.2c-2.7,0.3-4.9,7.3-6.9,6.6c-2.7-0.9-2.4-4.3-2.4-6.4c0-2.1,1.1-3.9-7-1.6c-0.3-0.4-1-1.3-2.2-1.7
	c-1.1-0.3-2.1,0.3-4,2.1c-1.2,1.2-0.9,1.7,1.3,2.6c-0.4,1.4-2.4,5.5-5.8,4.8c0,0,1.3-3.8,1-5.7c-0.2-1.2-0.6-1.7-1.7-1.8
	c-1.4-0.2-1.5,0.7-2.8,0.5c-0.9-0.1-1.1-1.1-3.3-0.8c-2.7,0.3-3.8,1.4-4.5,2.2c-1,1.2-1.6,2.7-1.5,3.3c-1.8,0.9-9.5,2.8-12.5,0
	c-2.7-2.4,0.4-10.5,8.3-13.2c9.5-3.3,1.3,4,6.3,3.6c0.6-0.1,1.7-1.2,1.8-1.4c7-7.6-9.2-8.6-19,0.5c-8.3,7.7-4.6,16.1,4.7,16.5
	c6.6,0.3,9.9-1.4,11.4-2.5c2.9,3.3,8.7,1,8.7,1s2.2,1.5,4.9,0.9c6.2-1.3,7.3-7,8-7.7c0.5-0.4,2.5-0.4,2.5-0.4s0.8,4.1,3.3,6.5
	c1.2,1.2,4.2,3,7.4,1.9c3.8-1.2,2.8-3.8,4-3.8c2.2-0.1,0.3,3.6,6.2,3.7c3.6,0.1,6.8-2.3,6.8-2.3s0.5,1.2,5.9,1.3
	c5.4,0.1,8.4-2.2,9.1-4.4C99.3,109.2,91.6,108.9,89,109z M38.3,117.5c-0.8,0.6-2.8,0.5-3.8-0.4c-0.7-0.6-1.1-1.5-0.6-2.3
	c0.4-0.7,2.3-2.4,4.4-0.6C39.3,115,38.5,117.3,38.3,117.5z M91.7,115.2c-1.5,0.9-4.8,2.4-6.7,0.6c-1.6-1.5,2.2-4.4,5.8-4.1
	C93.9,111.9,93.2,114.2,91.7,115.2z"/>
<path class="st0" d="M136.2,116.4c-0.6,0-1.5,0.7-2.2,0.6c-0.7-0.1-1.3-2.3-1.1-4.2c0.1-1.6,0.3-3-1.8-3c-4.8,0-2.6,7.6-7.2,7.5
	c-3.9-0.1-0.9-8-4.2-8.4c0,0-2-0.3-5.9,2.1c-0.7,0.4-1,0.1-1.3-0.2c0,0-2.1-3.4-6.4-2.3c-6.1,1.4-7.1,7-7.8,8.6
	c-0.4,1-1.9,1.5-2.1,2.1c-0.2,0.6,1.1,1.5,2,1.5c0.9,0,2-1.3,3.5-1c1.5,0.3,3.8,2.4,7.4,1.2c3.6-1.3,4.6-5.5,4.6-5.5s3.1-2.9,4-1.7
	c0.7,0.8-0.2,4.1,1.5,5.8c0.9,0.9,4.2,1.7,6.6,1.4c3.1-0.5,4.1-2.1,4.1-2.1s1,1.3,3.5,0.9c2.5-0.4,3.8-2.1,3.8-2.4
	C137.4,116.8,136.8,116.4,136.2,116.4z M109.5,114.9c-0.6,2-4.6,5.2-5.7,1.3c-1.1-3.9,2.2-5.3,3.7-5
	C109.1,111.5,110.1,112.9,109.5,114.9z"/>
<path class="st2" d="M103.1,72.8L94.6,28H52.2l-8.4,44.7c-0.9,3.9,1,7.9,4.4,9.3l22.5,9c0.7,0.3,1.5,0.5,2.3,0.5
	c0.7,0,1.5-0.1,2.2-0.4l23.4-9C102,80.7,103.9,76.7,103.1,72.8z"/>
<path class="st0" d="M88.5,42.5c0-0.1-0.1-0.2-0.1-0.3l0,0l-0.7-0.7c-0.3-0.3-0.6-0.8-0.5-1.3c0-0.3,0.1-0.6,0.2-0.9l0.4-0.6l0,0
	c0.1-0.1,0.1-0.2,0.1-0.4c0-0.4-0.3-0.8-0.8-0.8c-0.1,0-0.2,0-0.3,0c-0.8,0.3-1.7,0.4-2.7,0.5l0,0c-2.5,0.3-5.2,0.2-8-0.3
	c-14.2-2.8-16.4-9.5-15.8-12.4c0.2-1.2,0.8-2.2,1.7-3.1c2-2,6.4-3.2,11.5-3c1.2,0,3.5,0.4,3.5,0.4l0,0l0,0c0.3,0,0.5-0.1,0.6-0.3
	c0.3-0.6-0.8-1-1.6-1.6c-2.2-1.7,3.4-3,3.7-3.6c0.4-1.1-2.2-0.8-3.4-1.5c-1.8-1.1,2.5-2.9,2.8-3.2C79.5,9.3,79.4,9,79,9
	C66.5,8.7,57,17.3,57.3,26.2c0.5,9.6,12.9,17.2,27.7,17c0.9,0,2.9,0,3.4-0.4C88.5,42.7,88.5,42.6,88.5,42.5z"/>
<path class="st0" d="M92,48.3c0-0.8-0.6-1.4-1.4-1.5l-15.9-2.2h0c0,0-0.1,0-0.1,0c-0.3,0-0.5,0.2-0.5,0.5l0,0c0,0.1,0,0.2,0,0.3
	c0,1.6,1.2,3,2.8,3.3V51l0,0c0,1.5,1.2,2.7,2.7,2.7c0.1,0,0.2,0,0.3,0l0,0l10.2-1.2l0,0c0.7-0.1,1.2-0.6,1.3-1.2l0,0l0.5-2.6l0,0
	C92,48.6,92,48.5,92,48.3z"/>
<path class="st0" d="M81.5,61.7c0.6-0.2,0.9-0.8,0.8-1.4c0-0.2-0.1-0.4-0.2-0.5h0c-1.1-1.9-3.5-5.7-10.6-3.3c0,0-13.3,4.4-13.8,10.8
	C46,72.6,35.3,80.1,26.5,89.2l7.1,2.2c0,0,0.7,0.2,1.2,0.2c0.5,0,1-0.3,1.4-0.7c0,0,0,0,0,0c12.5-13.7,24-23,45.1-29.1
	C81.2,61.8,81.4,61.8,81.5,61.7z"/>
<path class="st0" d="M95.9,61c-18.8,2.2-34.2,11-34.2,11c-0.2,0.1-0.4,0.4-0.4,0.7c0,0.2,0.2,0.5,0.5,0.8c2.3,2.5,5.5,4.1,19-1.5
	c2.4-1,3.6-2.7,3.5-5c0,0,4-1,9.6-1.1c10.2-0.2,13.9,1.4,19.1,2.1c0.2,0,0.3,0,0.5,0c0.8-0.1,1.4-0.5,1.7-1.2l2.5-6.1
	C112.1,60.1,105,60,95.9,61z"/>
</svg>
